<?xml version="1.0" standalone="no"?>
<!DOCTYPE svg PUBLIC "-//W3C//DTD SVG 20010904//EN"
 "http://www.w3.org/TR/2001/REC-SVG-20010904/DTD/svg10.dtd">
<svg version="1.0" xmlns="http://www.w3.org/2000/svg"
 width="512.000000pt" height="512.000000pt" viewBox="0 0 512.000000 512.000000"
 preserveAspectRatio="xMidYMid meet">

<g transform="translate(0.000000,512.000000) scale(0.100000,-0.100000)"
fill="#000000" stroke="none">
<path d="M583 4537 l-423 -423 2 -1825 3 -1825 37 -76 c45 -91 103 -147 196
-191 l67 -32 1615 0 1615 0 67 32 c93 44 151 100 196 191 l37 76 5 1195 5
1196 474 715 c261 393 482 733 492 755 49 107 -3 245 -113 301 -70 36 -161 32
-232 -10 -45 -26 -71 -63 -337 -464 l-288 -436 -3 469 -3 470 -32 67 c-44 93
-100 151 -191 196 l-76 37 -1345 3 -1345 2 -423 -423z m3091 251 c55 -16 138
-99 154 -154 9 -30 12 -191 12 -601 l0 -560 -291 -439 c-160 -241 -301 -457
-314 -479 -12 -22 -53 -154 -90 -293 -57 -210 -66 -257 -57 -277 16 -34 57
-58 86 -51 13 3 118 79 233 168 l208 163 112 170 113 170 0 -1039 c0 -786 -3
-1049 -12 -1080 -16 -55 -99 -138 -154 -154 -60 -17 -3128 -17 -3188 0 -55 16
-138 99 -154 154 -9 32 -12 444 -12 1778 l0 1736 375 0 376 0 24 25 25 24 0
376 0 375 1256 0 c958 0 1266 -3 1298 -12z m1135 -324 c12 -15 21 -37 21 -49
0 -13 -33 -73 -73 -134 l-73 -110 -62 41 c-34 22 -62 45 -62 50 0 9 112 181
138 211 24 28 86 23 111 -9z m-449 -654 l59 -40 -193 -293 c-533 -807 -686
-1037 -691 -1037 -17 0 -126 84 -122 94 3 6 179 275 392 596 213 322 407 615
431 653 24 37 49 67 54 67 6 0 38 -18 70 -40z"/>
<path d="M505 3655 l-25 -24 0 -351 0 -351 25 -24 24 -25 351 0 351 0 24 25
25 24 0 230 0 229 114 81 c63 45 117 88 120 97 12 32 5 66 -19 89 -36 37 -71
32 -143 -20 -34 -25 -64 -45 -67 -45 -3 0 -5 9 -5 20 0 12 -11 32 -25 45 l-24
25 -351 0 -351 0 -24 -25z m615 -283 l0 -99 -107 -76 c-107 -76 -135 -87 -174
-67 -24 13 -119 200 -119 235 0 33 42 75 75 75 41 0 63 -17 90 -71 l26 -50 52
38 c29 20 75 54 102 75 28 20 51 37 53 37 1 1 2 -43 2 -97z"/>
<path d="M1625 3655 c-16 -15 -25 -36 -25 -55 0 -19 9 -40 25 -55 l24 -25 271
0 271 0 24 25 c16 15 25 36 25 55 0 19 -9 40 -25 55 l-24 25 -271 0 -271 0
-24 -25z"/>
<path d="M2425 3655 c-16 -15 -25 -36 -25 -55 0 -19 9 -40 25 -55 l24 -25 591
0 591 0 24 25 c16 15 25 36 25 55 0 19 -9 40 -25 55 l-24 25 -591 0 -591 0
-24 -25z"/>
<path d="M1625 3335 c-16 -15 -25 -36 -25 -55 0 -19 9 -40 25 -55 l24 -25 511
0 511 0 24 25 c16 15 25 36 25 55 0 19 -9 40 -25 55 l-24 25 -511 0 -511 0
-24 -25z"/>
<path d="M2905 3335 c-16 -15 -25 -36 -25 -55 0 -19 9 -40 25 -55 l24 -25 271
0 271 0 24 25 c16 15 25 36 25 55 0 19 -9 40 -25 55 l-24 25 -271 0 -271 0
-24 -25z"/>
<path d="M1625 3015 c-16 -15 -25 -36 -25 -55 0 -19 9 -40 25 -55 l24 -25 831
0 831 0 24 25 c16 15 25 36 25 55 0 19 -9 40 -25 55 l-24 25 -831 0 -831 0
-24 -25z"/>
<path d="M505 2695 l-25 -24 0 -351 0 -351 25 -24 24 -25 351 0 351 0 24 25
25 24 0 230 0 229 114 81 c63 45 117 88 120 97 12 32 5 66 -19 89 -36 37 -71
32 -143 -20 -34 -25 -64 -45 -67 -45 -3 0 -5 9 -5 20 0 12 -11 32 -25 45 l-24
25 -351 0 -351 0 -24 -25z m615 -283 l0 -99 -107 -76 c-107 -76 -135 -87 -174
-67 -24 13 -119 200 -119 235 0 33 42 75 75 75 41 0 63 -17 90 -71 l26 -50 52
38 c29 20 75 54 102 75 28 20 51 37 53 37 1 1 2 -43 2 -97z"/>
<path d="M1625 2695 c-16 -15 -25 -36 -25 -55 0 -19 9 -40 25 -55 l24 -25 271
0 271 0 24 25 c16 15 25 36 25 55 0 19 -9 40 -25 55 l-24 25 -271 0 -271 0
-24 -25z"/>
<path d="M2425 2695 c-16 -15 -25 -36 -25 -55 0 -19 9 -40 25 -55 l24 -25 311
0 311 0 24 25 c16 15 25 36 25 55 0 19 -9 40 -25 55 l-24 25 -311 0 -311 0
-24 -25z"/>
<path d="M1625 2375 c-16 -15 -25 -36 -25 -55 0 -19 9 -40 25 -55 l24 -25 471
0 471 0 24 25 c16 15 25 36 25 55 0 19 -9 40 -25 55 l-24 25 -471 0 -471 0
-24 -25z"/>
<path d="M2745 2375 c-16 -15 -25 -36 -25 -55 0 -19 9 -40 25 -55 23 -24 31
-25 135 -25 104 0 112 1 135 25 16 15 25 36 25 55 0 19 -9 40 -25 55 -23 24
-31 25 -135 25 -104 0 -112 -1 -135 -25z"/>
<path d="M1625 2055 c-16 -15 -25 -36 -25 -55 0 -19 9 -40 25 -55 l24 -25 631
0 631 0 24 25 c16 15 25 36 25 55 0 19 -9 40 -25 55 l-24 25 -631 0 -631 0
-24 -25z"/>
<path d="M505 1735 l-25 -24 0 -351 0 -351 25 -24 24 -25 351 0 351 0 24 25
25 24 0 351 0 351 -25 24 -24 25 -351 0 -351 0 -24 -25z"/>
<path d="M1625 1735 c-16 -15 -25 -36 -25 -55 0 -19 9 -40 25 -55 l24 -25 271
0 271 0 24 25 c16 15 25 36 25 55 0 19 -9 40 -25 55 l-24 25 -271 0 -271 0
-24 -25z"/>
<path d="M2425 1735 c-16 -15 -25 -36 -25 -55 0 -19 9 -40 25 -55 l24 -25 591
0 591 0 24 25 c16 15 25 36 25 55 0 19 -9 40 -25 55 l-24 25 -591 0 -591 0
-24 -25z"/>
<path d="M1625 1415 c-16 -15 -25 -36 -25 -55 0 -19 9 -40 25 -55 l24 -25 511
0 511 0 24 25 c16 15 25 36 25 55 0 19 -9 40 -25 55 l-24 25 -511 0 -511 0
-24 -25z"/>
<path d="M2905 1415 c-16 -15 -25 -36 -25 -55 0 -19 9 -40 25 -55 l24 -25 351
0 351 0 24 25 c16 15 25 36 25 55 0 19 -9 40 -25 55 l-24 25 -351 0 -351 0
-24 -25z"/>
<path d="M1625 1095 c-16 -15 -25 -36 -25 -55 0 -19 9 -40 25 -55 l24 -25 991
0 991 0 24 25 c16 15 25 36 25 55 0 19 -9 40 -25 55 l-24 25 -991 0 -991 0
-24 -25z"/>
</g>
</svg>
