<svg width="24" height="24" viewBox="0 0 24 24" fill="none" xmlns="http://www.w3.org/2000/svg">
<path d="M9.58211 21.6699C9.58211 22.9515 8.53356 24 7.25201 24C5.97046 24 4.92191 22.9515 4.92191 21.6699C4.92191 20.3883 5.97046 19.3398 7.25201 19.3398C8.53356 19.3398 9.58211 20.3883 9.58211 21.6699ZM18.9025 19.3398C17.6209 19.3398 16.5724 20.3883 16.5724 21.6699C16.5724 22.9515 17.6209 24 18.9025 24C20.1841 24 21.2326 22.9515 21.2326 21.6699C21.2326 20.3883 20.1841 19.3398 18.9025 19.3398ZM7.48502 15.6117V15.4951L8.53357 13.5146H17.1549C17.9705 13.5146 18.786 13.0485 19.1355 12.3495L23.6792 4.19417L21.6986 3.02913L17.1549 11.1845H8.99958L4.10638 0.699029H0.261719V3.02913H2.59182L6.78599 11.8835L5.15492 14.6796C5.03842 15.0291 4.92191 15.3786 4.92191 15.8447C4.92191 17.1262 5.97046 18.1748 7.25201 18.1748H21.2326V15.8447H7.71803C7.60153 15.8447 7.48502 15.7282 7.48502 15.6117ZM20.0675 1.63107L18.4365 0L12.8442 5.59223L9.81512 2.56311L8.18405 4.19417L12.8442 8.85437L20.0675 1.63107Z" fill="white"/>
</svg>
