<?xml version="1.0" standalone="no"?>
<!DOCTYPE svg PUBLIC "-//W3C//DTD SVG 20010904//EN"
 "http://www.w3.org/TR/2001/REC-SVG-20010904/DTD/svg10.dtd">
<svg version="1.0" xmlns="http://www.w3.org/2000/svg"
 width="512.000000pt" height="512.000000pt" viewBox="0 0 512.000000 512.000000"
 preserveAspectRatio="xMidYMid meet">

<g transform="translate(0.000000,512.000000) scale(0.100000,-0.100000)"
fill="#f44336" stroke="none">
<path d="M2390 4790 c-467 -37 -917 -222 -1280 -527 -352 -296 -616 -728 -724
-1183 -44 -185 -58 -310 -58 -520 0 -362 67 -658 222 -975 328 -675 956 -1132
1705 -1240 158 -23 457 -23 610 -1 495 74 932 292 1276 635 343 344 560 780
635 1276 22 149 22 461 0 610 -115 765 -577 1392 -1267 1719 -338 160 -745
235 -1119 206z m615 -1320 l455 455 227 -228 228 -227 -455 -455 -455 -455
453 -453 452 -452 -227 -228 -228 -227 -452 452 -453 453 -453 -453 -452 -452
-228 227 -227 228 452 452 453 453 -453 453 -452 452 227 228 228 227 452
-452 453 -453 455 455z"/>
</g>
</svg>
