<svg width="25" height="24" viewBox="0 0 25 24" fill="none" xmlns="http://www.w3.org/2000/svg">
<path d="M8.71412 0V5.63558H6.41857V0C3.15888 0.550933 0.679688 3.37446 0.679688 6.78336C0.679688 9.33142 2.0685 11.5466 4.12302 12.7403V22.8522C4.12302 23.4835 4.63952 24 5.27079 24H9.8619C10.4932 24 11.0097 23.4835 11.0097 22.8522V12.7403C13.0642 11.5466 14.453 9.33142 14.453 6.78336C14.453 3.37446 11.9738 0.550933 8.71412 0ZM9.8619 10.7547L8.71412 11.4204V21.7044H6.41857V11.4204L5.27079 10.7547C3.85903 9.92826 2.97524 8.4132 2.97524 6.78336C2.97524 5.63558 3.39992 4.55667 4.12302 3.74175V7.93113H11.0097V3.74175C11.7328 4.55667 12.1574 5.63558 12.1574 6.78336C12.1574 8.4132 11.2737 9.92826 9.8619 10.7547ZM23.1761 13.67L24.783 15.2884L17.288 22.8522L13.3052 18.835L14.9121 17.2166L17.288 19.604L23.1761 13.67Z" fill="white"/>
<path d="M8.71412 0V5.63558H6.41857V0C3.15888 0.550933 0.679688 3.37446 0.679688 6.78336C0.679688 9.33142 2.0685 11.5466 4.12302 12.7403V22.8522C4.12302 23.4835 4.63952 24 5.27079 24H9.8619C10.4932 24 11.0097 23.4835 11.0097 22.8522V12.7403C13.0642 11.5466 14.453 9.33142 14.453 6.78336C14.453 3.37446 11.9738 0.550933 8.71412 0ZM9.8619 10.7547L8.71412 11.4204V21.7044H6.41857V11.4204L5.27079 10.7547C3.85903 9.92826 2.97524 8.4132 2.97524 6.78336C2.97524 5.63558 3.39992 4.55667 4.12302 3.74175V7.93113H11.0097V3.74175C11.7328 4.55667 12.1574 5.63558 12.1574 6.78336C12.1574 8.4132 11.2737 9.92826 9.8619 10.7547ZM23.1761 13.67L24.783 15.2884L17.288 22.8522L13.3052 18.835L14.9121 17.2166L17.288 19.604L23.1761 13.67Z" stroke="black"/>
</svg>
